<svg width="50" height="50" viewBox="0 0 50 50" fill="white" xmlns="http://www.w3.org/2000/svg">
<g opacity="0.1">
<path d="M48.6887 38.5711L38.5683 31.822C37.284 30.9724 35.5625 31.252 34.613 32.4644L31.6651 36.2547C31.2862 36.7543 30.5975 36.8992 30.0495 36.5947L29.4887 36.2856C27.6298 35.2723 25.3168 34.0109 20.6566 29.349C15.9964 24.6871 14.7324 22.3724 13.7191 20.5169L13.4116 19.9561C13.103 19.4081 13.2452 18.7165 13.7449 18.3347L17.5327 15.3876C18.7446 14.438 19.0246 12.717 18.1759 11.4323L11.4269 1.31194C10.5571 0.00371623 8.81226 -0.389005 7.46586 0.420359L3.23391 2.9625C1.90421 3.74423 0.928653 5.01027 0.511814 6.49533C-1.0121 12.0479 0.134325 21.6308 14.2508 35.7489C25.4801 46.9774 33.8399 49.997 39.5858 49.997C40.9082 50.0027 42.2254 49.8306 43.5019 49.4855C44.9873 49.0691 46.2535 48.0935 47.0348 46.7634L49.5795 42.5339C50.39 41.1872 49.9975 39.4413 48.6887 38.5711ZM48.1437 41.679L45.6049 45.9109C45.0439 46.871 44.1332 47.5768 43.0635 47.8807C37.9376 49.288 28.9821 48.1224 15.4297 34.57C1.87735 21.0176 0.711787 12.0629 2.11912 6.93618C2.42337 5.86523 3.13012 4.95334 4.09131 4.39151L8.32327 1.85269C8.90746 1.50117 9.66479 1.67156 10.0422 2.23926L13.7084 7.7435L16.7855 12.3587C17.154 12.9159 17.0329 13.6628 16.5072 14.0752L12.7186 17.0222C11.5656 17.9039 11.2364 19.499 11.9462 20.7651L12.2471 21.3117C13.312 23.2648 14.6359 25.6944 19.4694 30.5272C24.303 35.3598 26.7318 36.6838 28.684 37.7486L29.2314 38.0503C30.4973 38.76 32.0926 38.4309 32.9743 37.2779L35.9213 33.4893C36.3338 32.9638 37.0803 32.8429 37.6378 33.211L47.7572 39.9601C48.3253 40.3372 48.4957 41.0949 48.1437 41.679Z" fill="black"/>
<path d="M28.3323 8.33599C36.1517 8.34469 42.4883 14.6814 42.4971 22.5008C42.4971 22.961 42.8701 23.334 43.3303 23.334C43.7905 23.334 44.1635 22.961 44.1635 22.5008C44.1538 13.7614 37.0717 6.67919 28.3323 6.66962C27.8721 6.66962 27.4991 7.04261 27.4991 7.50281C27.4991 7.963 27.8721 8.33599 28.3323 8.33599Z" fill="black"/>
<path d="M28.3323 13.3353C33.3918 13.3413 37.4918 17.4413 37.4978 22.5008C37.4978 22.961 37.8709 23.334 38.331 23.334C38.7912 23.334 39.1642 22.961 39.1642 22.5008C39.1572 16.5213 34.3117 11.6758 28.3323 11.6689C27.8721 11.6689 27.4991 12.0419 27.4991 12.5021C27.4991 12.9623 27.8721 13.3353 28.3323 13.3353Z" fill="black"/>
<path d="M28.3323 18.3347C30.632 18.3374 32.4956 20.201 32.4985 22.5008C32.4985 22.961 32.8716 23.334 33.3317 23.334C33.7918 23.334 34.1649 22.961 34.1649 22.5008C34.1611 19.2811 31.552 16.6719 28.3323 16.6683C27.8721 16.6683 27.4991 17.0413 27.4991 17.5015C27.4991 17.9617 27.8721 18.3347 28.3323 18.3347Z" fill="black"/>
</g>
</svg>
