<svg width="13" height="13" viewBox="0 0 13 13" fill="none" xmlns="http://www.w3.org/2000/svg">
<path d="M12.8847 12.337L9.7255 9.17783C10.573 8.20355 11.086 6.93237 11.086 5.54302C11.086 2.4847 8.59845 0 5.54302 0C2.4847 0 0 2.48758 0 5.54302C0 8.59845 2.48758 11.086 5.54302 11.086C6.93237 11.086 8.20355 10.5729 9.17783 9.7255L12.337 12.8847C12.412 12.9596 12.5129 13 12.6109 13C12.7089 13 12.8098 12.9625 12.8847 12.8847C13.0346 12.7348 13.0346 12.4869 12.8847 12.337ZM0.775388 5.54302C0.775388 2.91419 2.91419 0.778271 5.54013 0.778271C8.16896 0.778271 10.3049 2.91707 10.3049 5.54302C10.3049 8.16896 8.16896 10.3106 5.54013 10.3106C2.91419 10.3106 0.775388 8.17184 0.775388 5.54302Z" fill="#212121"/>
</svg>
