<svg width="36" height="50" viewBox="0 0 36 50" fill="none" xmlns="http://www.w3.org/2000/svg">
<g opacity="0.1">
<path d="M17.673 10.9575C14.1493 10.9575 11.2811 13.8256 11.2811 17.3494C11.2811 20.8731 14.1493 23.7413 17.673 23.7413C21.1968 23.7413 24.0649 20.8731 24.0649 17.3494C24.0649 13.8256 21.1968 10.9575 17.673 10.9575ZM17.673 21.915C15.1555 21.915 13.1074 19.8669 13.1074 17.3494C13.1074 14.8319 15.1555 12.7838 17.673 12.7838C20.1905 12.7838 22.2386 14.8319 22.2386 17.3494C22.2386 19.8669 20.1905 21.915 17.673 21.915Z" fill="black"/>
<path d="M29.8934 5.12902C26.5861 1.82169 22.1884 0 17.5114 0C12.8335 0 8.43677 1.82169 5.12943 5.12902C-0.991245 11.2488 -1.75188 22.7633 3.48216 29.7396L17.5114 50L31.5197 29.7679C36.7747 22.7633 36.0141 11.2488 29.8934 5.12902ZM30.0386 28.7004L17.5114 46.7913L4.96416 28.6721C0.21682 22.3423 0.897098 11.9437 6.42151 6.42018C9.38369 3.45801 13.322 1.82625 17.5114 1.82625C21.7008 1.82625 25.6391 3.45801 28.6022 6.42018C34.1266 11.9437 34.8069 22.3424 30.0386 28.7004Z" fill="black"/>
</g>
</svg>
