<svg width="396" height="82" viewBox="0 0 396 82" fill="none" xmlns="http://www.w3.org/2000/svg">
<path fill-rule="evenodd" clip-rule="evenodd" d="M40.7312 0.501038C18.2373 0.501038 0 18.7362 0 41.2322C0 63.7282 18.2373 81.9634 40.7312 81.9634C63.2272 81.9634 81.4644 63.7282 81.4644 41.2322C81.4644 18.7362 63.2272 0.501038 40.7312 0.501038ZM40.7354 79.7917C31.4284 79.7917 22.7183 76.6887 16.2285 70.9927C9.9145 65.447 5.01017 56.6353 3.79943 47.269C6.66964 65.0808 22.115 78.6868 40.7354 78.6868C61.3984 78.6868 78.1497 61.9354 78.1497 41.2724C78.1497 32.6999 74.9472 24.3052 70.0958 17.9975C75.0107 21.7884 79.2546 32.5856 79.2546 41.2724C79.2546 62.545 62.008 79.7917 40.7354 79.7917ZM37.1984 38.3303L40.492 4.5587L40.7312 4.55659H40.8158L41.1397 40.0956L46.8081 36.7068L41.1058 4.56082C61.1888 4.7619 77.411 21.1005 77.411 41.2322C77.411 47.7008 75.7346 53.7756 72.7966 59.0504L47.3394 37.7503L44.9285 39.1177L72.6231 59.3552L72.4114 59.7193L41.2667 41.8016V48.122L72.1976 60.077C65.7862 70.7577 54.0937 77.9079 40.729 77.9079C27.3792 77.9079 15.6951 70.7725 9.28161 60.1087L40.1935 48.0564V41.7381L9.0128 59.6558L8.80748 59.3002L36.4047 39.1177L33.9938 37.7503L8.6064 58.9382C5.61212 53.5178 4.04605 47.4247 4.05555 41.2322C4.05555 21.2593 20.0216 5.0159 39.8866 4.56505L34.9188 36.9629L37.1984 38.3303ZM40.7312 2.68967C19.4565 2.68967 2.21192 19.9363 2.21192 41.2089C2.21192 49.8492 5.34672 58.0217 10.1283 65.0808C11.7497 68.114 13.5044 69.9915 15.8454 72.4701C6.67176 65.1422 0.736603 53.8624 0.736603 41.2068C0.736603 19.1193 18.6415 1.21224 40.7312 1.21224C62.8208 1.21224 81.0665 19.8982 80.4103 41.2068C79.8558 20.4168 61.6545 2.68967 40.7312 2.68967ZM219.651 43.9289C219.651 36.7851 216.493 30.9939 209.559 30.9939C203.122 30.9939 199.463 36.7851 199.463 43.9289C199.463 51.0726 202.521 56.8639 209.559 56.8639C216.394 56.8639 218.403 53.4772 219.452 48.0606L217.097 48.0521C216.898 50.0609 215.587 54.5863 210.565 54.6858C204.835 54.8022 204.435 47.4489 204.532 43.931L204.632 41.9201C204.632 39.7103 204.433 33.1761 209.758 33.1761C213.979 33.1761 214.582 38.6054 214.582 41.9201H204.632L204.532 43.931H219.651V43.9289ZM100.749 22.0932L100.648 23.7019H102.155C103.26 23.7019 104.67 23.8014 104.67 25.209L104.168 52.4506C104.168 53.456 103.664 54.5609 101.653 54.5609H100.146L100.045 56.1696H110.196V54.5609H108.488C107.18 54.5609 106.276 54.1588 106.276 52.4506L106.778 26.316L117.634 54.4593H118.739L129.695 26.0133L130.199 52.4506C130.199 53.3544 129.293 54.5609 127.885 54.5609H125.775V56.1696H138.541V54.5609H137.033C135.929 54.5609 134.62 53.9577 134.62 52.5501L134.117 25.6112C134.117 24.7052 135.122 23.7019 136.128 23.7019H138.037V22.0932H128.889L119.44 46.8202L109.991 22.0932H100.749ZM171.459 56.1908V54.8848H170.454C169.55 54.8848 167.941 54.5821 167.941 52.7723V39.6045C167.941 35.4833 170.051 33.9762 172.162 33.9762C172.966 33.9762 173.47 34.3784 173.267 35.8855C173.066 37.3926 174.372 38.398 175.479 38.2985C176.586 38.199 177.993 37.9958 177.79 35.1828C177.587 32.3697 175.982 31.0616 173.167 31.0616C170.955 31.0616 169.146 32.4692 168.644 33.174C168.06 33.9932 167.336 33.6757 167.236 32.7719C167.137 31.868 166.735 30.9642 165.729 31.2648C163.806 31.8796 161.814 32.2508 159.798 32.3697V33.3751C164.019 33.174 163.619 35.2844 163.619 36.2898V52.7745C163.619 54.5842 162.01 54.8869 161.104 54.8869H159.697V56.1929H171.459V56.1908ZM193.851 32.5919C192.37 31.5103 190.507 30.8901 188.24 30.8901C181.807 30.8901 178.146 36.6814 178.146 43.8273C178.146 50.971 181.202 56.7284 188.24 56.7623C194.472 56.794 195.981 53.2761 197.028 47.8574L194.673 47.8468C194.472 49.8555 193.769 54.4805 189.245 54.5821C183.518 54.7112 183.116 47.3431 183.215 43.8273C183.215 41.6153 183.518 32.7676 188.342 32.7676C192.461 32.7676 194.975 35.6844 194.975 39.0012H196.281V30.5578H195.176L193.851 32.5919ZM339.269 54.6837C333.539 54.8001 333.139 47.4468 333.236 43.9289H348.356C348.356 36.7851 345.202 30.9939 338.263 30.9939C331.831 30.9939 328.171 36.7851 328.171 43.9289C328.171 51.0726 331.226 56.8639 338.263 56.8639C345.098 56.8639 347.111 53.4772 348.157 48.0606L345.805 48.05C345.602 50.0609 344.296 54.5863 339.269 54.6837ZM338.467 33.174C342.687 33.174 343.291 38.6033 343.291 41.918H333.34C333.34 39.7082 333.139 33.174 338.467 33.174ZM256.632 54.6837C250.902 54.8001 250.502 47.4468 250.599 43.9289H265.719C265.719 36.7851 262.561 30.9939 255.626 30.9939C249.194 30.9939 245.53 36.7851 245.53 43.9289C245.53 51.0726 248.589 56.8639 255.626 56.8639C262.461 56.8639 264.47 53.4772 265.52 48.0606L263.164 48.05C262.965 50.0609 261.659 54.5863 256.632 54.6837ZM255.825 33.174C260.05 33.174 260.649 38.6033 260.649 41.918H250.699C250.699 39.7082 250.502 33.174 255.825 33.174ZM149.949 54.6837C144.222 54.8001 143.82 47.4468 143.919 43.9289H159.038C159.038 36.7851 155.88 30.9939 148.946 30.9939C142.511 30.9939 138.852 36.7851 138.852 43.9289C138.852 51.0726 141.908 56.8639 148.946 56.8639C155.781 56.8639 157.792 53.4772 158.839 48.0606L156.484 48.0521C156.282 50.0609 154.977 54.5863 149.949 54.6837ZM149.145 33.174C153.368 33.174 153.969 38.6033 153.969 41.918H144.018C144.018 39.7082 143.82 33.174 149.145 33.174ZM241.542 50.9414V22.8955C241.542 21.7397 240.943 20.783 239.933 21.0857C238.011 21.7011 236.019 22.0723 234.005 22.1906V23.196C236.919 22.9949 237.222 23.9009 237.222 24.9063V33.5508C235.916 32.3443 234.407 31.1378 231.695 31.1378C228.277 31.1378 221.944 33.8514 221.944 43.3997C221.944 55.9664 229.282 56.7686 231.494 56.7686C233.706 56.7686 236.621 54.961 237.224 54.0042C237.273 53.8032 237.575 53.5513 237.675 54.0042C237.779 54.9102 238.431 56.2648 239.436 55.9643C241.358 55.3499 243.35 54.9787 245.365 54.8594V53.854C241.142 54.0572 241.542 51.9447 241.542 50.9414ZM237.222 47.9251C237.122 53.4518 234.208 55.1621 231.795 55.1621C226.368 55.0626 226.768 46.8202 226.768 43.3002C226.768 39.7802 226.971 32.8459 231.894 33.4492C236.822 34.0524 237.224 39.2785 237.224 42.3943V47.9251H237.222ZM300.549 41.8016V39.4902H287.283V41.8016H300.549ZM269.006 47.6457V56.1886H270.109L271.114 53.9767C272.12 54.8827 274.232 56.3897 276.943 56.3897C279.659 56.3897 283.48 54.8827 284.989 52.0696C286.494 49.2544 285.791 44.6295 282.373 43.2219C279.38 41.99 276.755 40.5147 274.734 39.5029C274.105 39.2033 273.589 38.7089 273.264 38.0931C272.938 37.4773 272.82 36.7729 272.926 36.0845C273.229 34.4758 274.634 32.7676 277.849 32.666C281.067 32.5666 282.673 35.2801 283.08 38.3959H284.182V30.3567H283.177L282.07 32.266C279.962 30.8584 279.056 30.6573 277.147 30.6573C275.237 30.6573 272.02 31.6627 270.21 34.4779C268.403 37.2931 268.904 41.7127 273.229 43.5246C277.549 45.3322 279.562 46.4392 280.766 47.0425C281.973 47.6457 282.675 50.0588 281.873 51.4663C281.067 52.8718 279.562 54.4826 277.149 54.4826C274.736 54.4826 270.919 52.7723 270.013 47.6479H269.006V47.6457ZM319.442 37.7736C321.857 37.1703 324.27 32.8481 324.27 29.9334C324.27 27.0187 323.163 22.0932 316.125 22.0932H301.048V23.3992C302.557 23.3992 305.169 23.7019 305.169 26.2144V51.043C305.169 52.4506 305.07 54.762 301.048 54.762V56.1696H313.414C317.131 56.1696 325.676 55.8669 325.879 46.018C325.879 42.6991 324.27 38.779 319.442 37.7736ZM309.492 23.7019H314.519C318.24 23.7019 319.745 26.4134 319.745 29.9334C319.745 34.2557 318.439 37.5725 314.519 37.5725H309.492V23.7019ZM314.618 54.5609H309.492V39.1812H315.221C318.54 39.1812 321.455 41.4926 321.455 46.5176C321.455 51.5447 318.437 54.5609 314.618 54.5609ZM366.932 37.8963V52.7723C366.932 54.5821 365.323 54.8848 364.417 54.8848H363.814V56.1908H374.77V54.8848H373.764C372.858 54.8848 371.25 54.5821 371.25 52.7723V37.9979C371.15 31.2627 365.12 31.0616 363.01 31.0616C360.798 31.0616 358.382 32.4692 357.883 33.174C357.297 33.9932 356.573 33.6757 356.473 32.7719C356.374 31.868 355.974 30.9642 354.964 31.2648C353.042 31.8795 351.05 32.2507 349.035 32.3697V33.3751C353.256 33.174 352.856 35.2844 352.856 36.2898V52.7745C352.856 54.5842 351.247 54.8869 350.341 54.8869H348.936V56.1929H360.694V54.8869H359.688C358.783 54.8869 357.174 54.5842 357.174 52.7745V39.6066C357.174 37.3968 357.98 33.8768 362.101 33.5741C366.227 33.2735 366.932 35.9871 366.932 37.8963ZM377.1 38.4001L378.91 31.5654H396L381.323 54.7853H389.161C390.971 54.7853 392.378 54.0804 394.288 49.4555H395.094L393.485 56.1908H375.993L390.571 32.9729H384.034C382.426 32.9729 380.62 32.973 378.106 38.4001H377.1Z" fill="white"/>
</svg>
